<?xml version="1.0" encoding="UTF-8" standalone="no"?>
<!-- Created with Inkscape (http://www.inkscape.org/) -->

<svg
   xmlns:dc="http://purl.org/dc/elements/1.1/"
   xmlns:cc="http://creativecommons.org/ns#"
   xmlns:rdf="http://www.w3.org/1999/02/22-rdf-syntax-ns#"
   xmlns:svg="http://www.w3.org/2000/svg"
   xmlns="http://www.w3.org/2000/svg"
   xmlns:xlink="http://www.w3.org/1999/xlink"
   xmlns:sodipodi="http://sodipodi.sourceforge.net/DTD/sodipodi-0.dtd"
   xmlns:inkscape="http://www.inkscape.org/namespaces/inkscape"
   width="362.32632"
   height="394.79605"
   id="svg4246"
   version="1.1"
   inkscape:version="0.47pre4 r22446"
   sodipodi:docname="hardhatliner.svg">
  <title
     id="title5470">Hard hat Liner</title>
  <defs
     id="defs4248"><inkscape:perspective
   sodipodi:type="inkscape:persp3d"
   inkscape:vp_x="0 : 526.18109 : 1"
   inkscape:vp_y="0 : 1000 : 0"
   inkscape:vp_z="744.09448 : 526.18109 : 1"
   inkscape:persp3d-origin="372.04724 : 350.78739 : 1"
   id="perspective4254" />
<inkscape:perspective
   id="perspective4540"
   inkscape:persp3d-origin="187.28368 : 96.087555 : 1"
   inkscape:vp_z="374.56735 : 144.13133 : 1"
   inkscape:vp_y="0 : 1000 : 0"
   inkscape:vp_x="0 : 144.13133 : 1"
   sodipodi:type="inkscape:persp3d" />

		
		
		
	<radialGradient
   inkscape:collect="always"
   xlink:href="#SVGID_1_"
   id="radialGradient4664"
   gradientUnits="userSpaceOnUse"
   gradientTransform="translate(614.4,-728.401)"
   cx="-464.9202"
   cy="873.18951"
   r="255.5941" />

			
			
			
			
		<filter
   inkscape:collect="always"
   id="filter5207"
   color-interpolation-filters="sRGB">
  <feGaussianBlur
     inkscape:collect="always"
     stdDeviation="6.0463237"
     id="feGaussianBlur5209" />
</filter>
<inkscape:perspective
   id="perspective149"
   inkscape:persp3d-origin="200 : 42.666667 : 1"
   inkscape:vp_z="400 : 64 : 1"
   inkscape:vp_y="0 : 1000 : 0"
   inkscape:vp_x="0 : 64 : 1"
   sodipodi:type="inkscape:persp3d" />
<inkscape:perspective
   id="perspective5334"
   inkscape:persp3d-origin="0.5 : 0.33333333 : 1"
   inkscape:vp_z="1 : 0.5 : 1"
   inkscape:vp_y="0 : 1000 : 0"
   inkscape:vp_x="0 : 0.5 : 1"
   sodipodi:type="inkscape:persp3d" />
</defs>
  <sodipodi:namedview
     id="base"
     pagecolor="#ffffff"
     bordercolor="#666666"
     borderopacity="1.0"
     inkscape:pageopacity="0.0"
     inkscape:pageshadow="2"
     inkscape:zoom="0.35"
     inkscape:cx="95.021405"
     inkscape:cy="193.51974"
     inkscape:document-units="px"
     inkscape:current-layer="layer2"
     showgrid="false"
     inkscape:window-width="1009"
     inkscape:window-height="734"
     inkscape:window-x="157"
     inkscape:window-y="51"
     inkscape:window-maximized="0" />
  <metadata
     id="metadata4251">
    <rdf:RDF>
      <cc:Work
         rdf:about="">
        <dc:format>image/svg+xml</dc:format>
        <dc:type
           rdf:resource="http://purl.org/dc/dcmitype/StillImage" />
        <dc:title>Hard hat Liner</dc:title>
        <cc:license
           rdf:resource="http://creativecommons.org/licenses/publicdomain/" />
        <dc:date>2010-12-30</dc:date>
        <dc:creator>
          <cc:Agent>
            <dc:title>Eric Schug</dc:title>
          </cc:Agent>
        </dc:creator>
        <dc:publisher>
          <cc:Agent>
            <dc:title>Eric Schug</dc:title>
          </cc:Agent>
        </dc:publisher>
        <dc:description>Hard hat with liner</dc:description>
        <dc:contributor>
          <cc:Agent>
            <dc:title>derived from &quot;Hard Hat&quot; Adriano Ribeiro (adriano)
OpenClipArt.org

</dc:title>
          </cc:Agent>
        </dc:contributor>
      </cc:Work>
      <cc:License
         rdf:about="http://creativecommons.org/licenses/publicdomain/">
        <cc:permits
           rdf:resource="http://creativecommons.org/ns#Reproduction" />
        <cc:permits
           rdf:resource="http://creativecommons.org/ns#Distribution" />
        <cc:permits
           rdf:resource="http://creativecommons.org/ns#DerivativeWorks" />
      </cc:License>
    </rdf:RDF>
  </metadata>
  <g
     inkscape:groupmode="layer"
     id="layer2"
     inkscape:label="Layer"
     transform="translate(-194.45492,-383.65419)">
    <g
       id="g3779"
       transform="matrix(7.9754489,0,0,7.5888273,-893.37962,325.23851)" />
    <path
       sodipodi:nodetypes="cccccc"
       id="path2983"
       d="m 257.23839,611.17886 c -5.52642,-74.81961 208.8794,-100.53203 220.38455,-41.408 63.54718,4.72689 64.79797,151.3886 19.82313,196.39605 -56.28298,36.65776 -54.74017,-56.1114 -101.83105,-98.236 -22.14145,8.63464 -67.33635,-38.06786 -90.45526,-59.65843 -19.66523,0.0916 -31.14182,9.20231 -47.92137,2.90638 z"
       style="fill:#28170b;fill-rule:evenodd;stroke:#120a04;stroke-width:7.779737px;stroke-linecap:butt;stroke-linejoin:miter;stroke-opacity:1" />
  </g>
  <g
     inkscape:label="Layer 1"
     inkscape:groupmode="layer"
     id="layer1"
     transform="translate(-194.45492,-383.65419)">
    <g
       id="g7"
       transform="translate(175.95408,318.29604)"
       style="stroke-width:2;stroke-miterlimit:4;stroke-dasharray:none">
			<path
   style="fill:#ffffff;stroke:#cccccc;stroke-width:2;stroke-miterlimit:4;stroke-dasharray:none"
   id="path9"
   d="m 266.018,314.156 c 0,0 -30.965,16.684 -78.454,33.213 -28.683,10 -79.628,-6.867 -106.152,-13.891 -26.563,-7.049 -72.459,-21.629 -59.724,-34.364 12.736,-12.732 49.354,-39.888 49.354,-39.888 0,0 -34.865,57.573 194.976,54.93 z" />

			<g
   id="g11"
   style="stroke-width:2;stroke-miterlimit:4;stroke-dasharray:none">
				<path
   style="fill:#ffffff;stroke:#cccccc;stroke-width:2;stroke-miterlimit:4;stroke-dasharray:none"
   id="path13"
   d="m 54.069,272.286 c 0,24.282 72.646,43.974 162.273,43.974 89.617,0 162.249,-19.689 162.249,-43.974 C 359.9,258.738 362.605,247.332 362.605,247.332 H 69.299 c 0.01,0 2.605,11.406 -15.23,24.954 z" />

			</g>

			<g
   id="g15"
   style="stroke-width:2;stroke-miterlimit:4;stroke-dasharray:none">
				<g
   id="g17"
   style="stroke-width:2;stroke-miterlimit:4;stroke-dasharray:none">
					<path
   style="fill:#ffffff;stroke-width:2;stroke-miterlimit:4;stroke-dasharray:none"
   id="path19"
   d="m 344.759,160.41 c -3.628,-8.278 -17.685,-36.869 -46.261,-56.996 -51.803,-36.532 -116.039,-29.563 -153.81,-7.634 -25.523,14.848 -43.106,33.982 -57.037,62.074 -3.4,6.862 -9.738,21.504 -14.082,42.451 -3.759,18.168 -4.121,29.625 -4.726,48.653 0.03,15.899 30.204,30.239 82.196,37.222 72.762,9.744 160.702,1.28 196.393,-18.902 10.213,-5.772 15.034,-11.914 15.014,-17.896 -0.753,-24.585 -1.662,-52.437 -17.687,-88.972 z" />

				</g>

				<g
   id="g21"
   style="stroke-width:2;stroke-miterlimit:4;stroke-dasharray:none">
					<path
   style="fill:none;stroke:#cccccc;stroke-width:2;stroke-miterlimit:4;stroke-dasharray:none"
   id="path23"
   d="m 344.759,160.41 c -3.628,-8.278 -17.685,-36.869 -46.261,-56.996 -51.803,-36.532 -116.039,-29.563 -153.81,-7.634 -25.523,14.848 -43.106,33.982 -57.037,62.074 -3.4,6.862 -9.738,21.504 -14.082,42.451 -3.759,18.168 -4.121,29.625 -4.726,48.653 0.03,15.899 30.204,30.239 82.196,37.222 72.762,9.744 160.702,1.28 196.393,-18.902 10.213,-5.772 15.034,-11.914 15.014,-17.896 -0.753,-24.585 -1.662,-52.437 -17.687,-88.972 z" />

				</g>

			</g>

		</g>
    <path
       style="fill:#ffd520;stroke:#000000;stroke-width:2;stroke-miterlimit:4;stroke-dasharray:none"
       d="m 246.46875,564.90625 c 0.0102,0 2.21963,9.78731 -11.625,22 -11.79138,9.05274 -28.244,22.02828 -35.96875,29.75 -12.736,12.761 33.15675,27.352 59.71875,34.375 26.527,7.049 77.48325,23.88625 106.15625,13.90625 47.479,-16.555 78.4375,-33.21875 78.4375,-33.21875 65.30186,-5.68406 112.59375,-22.28501 112.59375,-41.875 -18.702,-13.548 -16,-24.9375 -16,-24.9375 l -293.3125,0 z"
       id="path27" />
    <g
       id="g29"
       transform="translate(175.95408,318.29604)"
       style="fill:#fed51f;fill-opacity:1;stroke-width:2;stroke-miterlimit:4;stroke-dasharray:none">
				
			</g>
    <g
       id="g33"
       transform="translate(175.95408,318.29604)"
       style="stroke-width:2;stroke-miterlimit:4;stroke-dasharray:none">
				<g
   id="g35"
   style="stroke-width:2;stroke-miterlimit:4;stroke-dasharray:none">
					<path
   d="m 345.992,159.669 c -3.628,-8.272 -17.692,-36.851 -46.26,-56.997 -51.798,-36.531 -116.034,-29.554 -153.81,-7.628 -25.539,14.849 -43.112,33.981 -57.032,62.05 -3.406,6.862 -9.759,21.504 -14.082,42.462 -3.748,18.156 -4.115,29.623 -4.729,48.627 0.021,15.9 30.219,30.264 82.218,37.223 72.76,9.769 160.69,1.279 196.371,-18.903 10.213,-5.772 15.044,-11.892 15.022,-17.896 -0.78,-24.546 -1.692,-52.402 -17.698,-88.938 z"
   id="path37"
   style="fill:#ffd520;stroke-width:2;stroke-miterlimit:4;stroke-dasharray:none" />

				</g>

				<g
   id="g39"
   style="stroke-width:2;stroke-miterlimit:4;stroke-dasharray:none">
					<path
   d="m 345.992,159.669 c -3.628,-8.272 -17.692,-36.851 -46.26,-56.997 -51.798,-36.531 -116.034,-29.554 -153.81,-7.628 -25.539,14.849 -43.112,33.981 -57.032,62.05 -3.406,6.862 -9.759,21.504 -14.082,42.462 -3.748,18.156 -4.115,29.623 -4.729,48.627 0.021,15.9 30.219,30.264 82.218,37.223 72.76,9.769 160.69,1.279 196.371,-18.903 10.213,-5.772 15.044,-11.892 15.022,-17.896 -0.78,-24.546 -1.692,-52.402 -17.698,-88.938 z"
   id="path41"
   style="fill:none;stroke:#000000;stroke-width:2;stroke-miterlimit:4;stroke-dasharray:none" />

				</g>

			</g>
    <g
       id="g43"
       transform="translate(175.95408,318.29604)"
       style="stroke-width:2;stroke-miterlimit:4;stroke-dasharray:none">
				<g
   id="g45"
   style="stroke-width:2;stroke-miterlimit:4;stroke-dasharray:none">
					
						<radialGradient
   id="SVGID_1_"
   cx="-464.9202"
   cy="873.18951"
   r="255.5941"
   gradientTransform="translate(614.4,-728.401)"
   gradientUnits="userSpaceOnUse">
						<stop
   offset="0.5"
   style="stop-color: rgb(254, 213, 31);"
   id="stop48" />

						<stop
   offset="1"
   style="stop-color: rgb(0, 0, 0);"
   id="stop50" />

					</radialGradient>

					<path
   d="m 345.992,159.669 c -3.628,-8.272 -17.692,-36.851 -46.26,-56.997 -51.798,-36.531 -116.034,-29.554 -153.81,-7.628 -25.539,14.849 -43.112,33.981 -57.032,62.05 -3.406,6.862 -9.759,21.504 -14.082,42.462 -3.748,18.156 -4.115,29.623 -4.729,48.627 0.021,15.9 30.219,30.264 82.218,37.223 72.76,9.769 160.69,1.279 196.371,-18.903 10.213,-5.772 15.044,-11.892 15.022,-17.896 -0.78,-24.546 -1.692,-52.402 -17.698,-88.938 z"
   id="path52"
   style="fill:url(#radialGradient4664);stroke-width:2;stroke-miterlimit:4;stroke-dasharray:none" />

				</g>

			</g>
    <g
       id="g54"
       transform="matrix(1,0,0,0.977262,175.95408,325.36676)"
       style="fill:#fed51f;fill-opacity:1;stroke-width:2;stroke-miterlimit:4;stroke-dasharray:none;filter:url(#filter5207)">
			<g
   id="g56"
   style="fill:#fed51f;fill-opacity:1;stroke-width:2;stroke-miterlimit:4;stroke-dasharray:none">
				<g
   id="g58"
   style="fill:#fed51f;fill-opacity:1;stroke-width:2;stroke-miterlimit:4;stroke-dasharray:none">
					<path
   style="fill:#fed51f;fill-opacity:1;stroke-width:2;stroke-miterlimit:4;stroke-dasharray:none"
   id="path60"
   d="M 292.967,97.194 C 183.995,27.707 73.4,170.418 76.861,262.057 l -10.137,4.09 C 66.729,166.256 174.974,19.021 292.967,97.194" />

				</g>

				<polygon
   style="fill:#fed51f;fill-opacity:1;stroke-width:2;stroke-miterlimit:4;stroke-dasharray:none"
   id="polygon62"
   points="76.865,262.057 61.197,281.15 66.729,266.146 " />

			</g>

			<path
   style="fill:#fed51f;fill-opacity:1;stroke:#000000;stroke-width:2;stroke-linecap:round;stroke-linejoin:round;stroke-miterlimit:4;stroke-dasharray:none"
   id="path64"
   d="m 109.11,280.45 0,0 C 109.105,190.041 163.059,49.176 260.763,81.157 155.99,45.698 66.749,175.416 66.749,266.127 l -5.532,15.003 42.381,14.294 5.512,-14.974 0,0 z" />

			<g
   id="g66"
   style="fill:#fed51f;fill-opacity:1;stroke-width:2;stroke-miterlimit:4;stroke-dasharray:none">
				<g
   id="g68"
   style="fill:#fed51f;fill-opacity:1;stroke-width:2;stroke-miterlimit:4;stroke-dasharray:none">
					<path
   style="fill:#fed51f;fill-opacity:1;stroke-width:2;stroke-miterlimit:4;stroke-dasharray:none"
   id="path70"
   d="m 109.105,280.45 0,0 0,0 -5.526,15.004 24.849,-17.417 C 124.95,186.375 183.992,27.712 292.974,97.173 174.974,19.021 109.105,180.544 109.105,280.45 z" />

				</g>

				<g
   id="g72"
   style="fill:#fed51f;fill-opacity:1;stroke-width:2;stroke-miterlimit:4;stroke-dasharray:none">
					<path
   style="fill:#fed51f;fill-opacity:1;stroke:#000000;stroke-width:2;stroke-linecap:round;stroke-linejoin:round;stroke-miterlimit:4;stroke-dasharray:none"
   id="path74"
   d="m 109.105,280.45 0,0 0,0 -5.526,15.004 24.849,-17.417 C 124.95,186.375 183.992,27.712 292.974,97.173 174.974,19.021 109.105,180.544 109.105,280.45 z" />

				</g>

			</g>

		</g>
  </g>
</svg>
