<?xml version="1.0" encoding="UTF-8" standalone="no"?>
<!DOCTYPE svg PUBLIC "-//W3C//DTD SVG 20010904//EN"
"http://www.w3.org/TR/2001/REC-SVG-20010904/DTD/svg10.dtd">
<!-- Created with Inkscape (http://www.inkscape.org/) -->
<svg
   id="svg1"
   sodipodi:version="0.32"
   inkscape:version="0.38.1"
   width="400.00000pt"
   height="400.00000pt"
   sodipodi:docbase="/var/www/html/svg_gallery/svg/jigsaw"
   sodipodi:docname="jigsaw_blue_14.svg"
   xmlns="http://www.w3.org/2000/svg"
   xmlns:inkscape="http://www.inkscape.org/namespaces/inkscape"
   xmlns:sodipodi="http://sodipodi.sourceforge.net/DTD/sodipodi-0.dtd"
   xmlns:xlink="http://www.w3.org/1999/xlink">
  <defs
     id="defs3">
    <linearGradient
       id="linearGradient1085">
      <stop
         style="stop-color:#00009f;stop-opacity:1.0000000;"
         offset="0.0000000"
         id="stop1086" />
      <stop
         style="stop-color:#0000ff;stop-opacity:1.0000000;"
         offset="1.0000000"
         id="stop1087" />
    </linearGradient>
    <radialGradient
       xlink:href="#linearGradient1085"
       id="radialGradient1088"
       cx="1.7995006"
       cy="-0.033503532"
       r="2.1367373"
       fx="1.7995006"
       fy="-0.033503532" />
    <radialGradient
       xlink:href="#linearGradient1085"
       id="radialGradient1089"
       cx="-1.8538072"
       cy="-0.028270273"
       r="2.1367373"
       fx="-1.8538072"
       fy="-0.028270273" />
    <radialGradient
       xlink:href="#linearGradient1085"
       id="radialGradient1090"
       cx="-0.34090281"
       cy="-1.8841810"
       r="2.1367373"
       fx="-0.34090281"
       fy="-1.8841810"
       gradientTransform="scale(0.751916,1.329935)" />
    <radialGradient
       xlink:href="#linearGradient1085"
       id="radialGradient1091"
       cx="-0.33888963"
       cy="0.86286521"
       r="2.1367373"
       fx="-0.33888963"
       fy="0.86286521"
       gradientTransform="scale(0.751916,1.329935)" />
    <radialGradient
       xlink:href="#linearGradient1085"
       id="radialGradient1092"
       cx="0.86051458"
       cy="-0.022911092"
       r="2.1367371"
       fx="0.86051458"
       fy="-0.022911092" />
    <radialGradient
       xlink:href="#linearGradient1085"
       id="radialGradient1093"
       cx="-2.7927938"
       cy="-0.031800985"
       r="2.1367373"
       fx="-2.7927938"
       fy="-0.031800985" />
    <radialGradient
       xlink:href="#linearGradient1085"
       id="radialGradient1094"
       cx="-0.34090281"
       cy="-1.1746118"
       r="2.1367373"
       fx="-0.34090281"
       fy="-1.1746118"
       gradientTransform="scale(0.751916,1.329935)" />
    <radialGradient
       xlink:href="#linearGradient1085"
       id="radialGradient1095"
       cx="-0.33623907"
       cy="1.5691054"
       r="2.1367371"
       fx="-0.33623907"
       fy="1.5691054"
       gradientTransform="scale(0.751916,1.329935)" />
    <radialGradient
       xlink:href="#linearGradient1085"
       id="radialGradient1096"
       cx="0.26481381"
       cy="0.26821491"
       r="0.66534734"
       fx="0.26481381"
       fy="0.26821491"
       gradientTransform="scale(0.867801,1.152339)" />
  </defs>
  <sodipodi:namedview
     id="base"
     pagecolor="#ffffff"
     bordercolor="#666666"
     borderopacity="1.0"
     inkscape:pageopacity="0.0"
     inkscape:pageshadow="2"
     inkscape:zoom="1.00000000"
     inkscape:cx="314.24684"
     inkscape:cy="163.60373"
     inkscape:window-width="854"
     inkscape:window-height="696"
     showgrid="true"
     inkscape:window-x="116"
     inkscape:window-y="24" />
  <g
     id="g842">
    <path
       style="fill-opacity:0.49999997;fill-rule:evenodd;stroke-width:2.8679966pt;"
       d="M 123.10166,127.62500 C 123.10166,127.62500 123.22666,224.56251 123.22666,224.56250 C 123.22666,224.56250 124.30583,247.24853 143.82041,243.46875 C 159.67601,240.39767 154.05317,218.59071 166.50791,217.62500 C 169.38208,217.40214 173.22271,218.30076 178.50791,220.78125 C 189.41711,229.87637 194.51087,246.92556 195.07041,262.12500 C 195.27697,267.73595 194.78711,273.01294 193.82041,277.62500 C 193.79560,277.82969 193.75312,278.04517 193.72666,278.25000 C 192.03275,291.36441 186.96486,304.66780 177.75791,312.34375 C 149.57017,325.57302 162.58500,293.43603 143.07041,289.65625 C 128.85221,286.90232 124.45996,298.13459 123.10166,304.46875 L 123.10166,407.37500 C 123.10166,407.37500 221.19542,406.59374 221.19541,406.59375 C 221.19541,406.59375 243.88144,405.51457 240.10166,386.00000 C 236.32187,366.48541 204.21615,379.50022 217.44541,351.31250 C 226.54053,340.40330 243.55847,335.30953 258.75791,334.75000 C 264.36886,334.54344 269.64587,335.03329 274.25791,336.00000 C 274.46260,336.02481 274.67809,336.06728 274.88291,336.09375 C 287.99732,337.78766 301.33197,342.85554 309.00791,352.06250 C 322.23718,380.25024 290.10020,367.23540 286.32041,386.75000 C 282.54062,406.26458 305.22666,407.34374 305.22666,407.34375 L 402.41416,407.37500 L 402.41416,305.28125 C 403.80057,298.92914 408.21689,287.82473 422.35166,290.56250 C 441.86624,294.34229 428.85142,326.47927 457.03916,313.25000 C 466.24610,305.57406 471.31400,292.23941 473.00791,279.12500 C 473.03436,278.92018 473.07685,278.73594 473.10166,278.53125 C 474.06835,273.91920 474.55822,268.64220 474.35166,263.03125 C 473.79211,247.83181 468.69836,230.78262 457.78916,221.68750 C 429.60142,208.45824 442.61625,240.59521 423.10166,244.37500 C 403.58707,248.15480 402.50791,225.46875 402.50791,225.46875 L 402.41416,127.62500 C 402.41416,127.62500 305.07041,128.34375 305.07041,128.34375 C 305.07041,128.34375 282.38436,129.42292 286.16416,148.93750 C 289.94395,168.45209 322.08092,155.43727 308.85166,183.62500 C 299.75654,194.53420 282.70735,199.62796 267.50791,200.18750 C 261.89696,200.39406 256.61995,199.90420 252.00791,198.93750 C 251.80322,198.91269 251.58773,198.87021 251.38291,198.84375 C 238.26850,197.14984 224.96510,192.08195 217.28916,182.87500 C 204.05989,154.68726 236.16562,167.70209 239.94541,148.18750 C 243.66555,128.98090 221.98092,127.66278 221.28916,127.62500 L 123.10166,127.62500 z "
       id="path1332"
       sodipodi:nodetypes="cccccccccccccccccccccccccccccccccccccccccc" />
    <path
       style="fill:url(#radialGradient1096);fill-opacity:1;fill-rule:evenodd;stroke:#000000;stroke-width:12.500000;stroke-dasharray:none;stroke-linejoin:round;"
       d="M 108.62500,112.46875 C 108.62500,112.46875 108.75000,209.40626 108.75000,209.40625 C 108.75000,209.40625 109.82917,232.09228 129.34375,228.31250 C 145.19935,225.24142 139.57651,203.43446 152.03125,202.46875 C 154.90542,202.24589 158.74605,203.14451 164.03125,205.62500 C 174.94045,214.72012 180.03421,231.76931 180.59375,246.96875 C 180.80031,252.57970 180.31045,257.85669 179.34375,262.46875 C 179.31894,262.67344 179.27646,262.88892 179.25000,263.09375 C 177.55609,276.20816 172.48820,289.51155 163.28125,297.18750 C 135.09351,310.41677 148.10834,278.27978 128.59375,274.50000 C 114.37555,271.74607 109.98330,282.97834 108.62500,289.31250 L 108.62500,392.21875 C 108.62500,392.21875 206.71876,391.43749 206.71875,391.43750 C 206.71875,391.43750 229.40478,390.35832 225.62500,370.84375 C 221.84521,351.32916 189.73949,364.34397 202.96875,336.15625 C 212.06387,325.24705 229.08181,320.15328 244.28125,319.59375 C 249.89220,319.38719 255.16921,319.87704 259.78125,320.84375 C 259.98594,320.86856 260.20143,320.91103 260.40625,320.93750 C 273.52066,322.63141 286.85531,327.69929 294.53125,336.90625 C 307.76052,365.09399 275.62354,352.07915 271.84375,371.59375 C 268.06396,391.10833 290.75000,392.18749 290.75000,392.18750 L 387.93750,392.21875 L 387.93750,290.12500 C 389.32391,283.77289 393.74023,272.66848 407.87500,275.40625 C 427.38958,279.18604 414.37476,311.32302 442.56250,298.09375 C 451.76944,290.41781 456.83734,277.08316 458.53125,263.96875 C 458.55770,263.76393 458.60019,263.57969 458.62500,263.37500 C 459.59169,258.76295 460.08156,253.48595 459.87500,247.87500 C 459.31545,232.67556 454.22170,215.62637 443.31250,206.53125 C 415.12476,193.30199 428.13959,225.43896 408.62500,229.21875 C 389.11041,232.99855 388.03125,210.31250 388.03125,210.31250 L 387.93750,112.46875 C 387.93750,112.46875 290.59375,113.18750 290.59375,113.18750 C 290.59375,113.18750 267.90770,114.26667 271.68750,133.78125 C 275.46729,153.29584 307.60426,140.28102 294.37500,168.46875 C 285.27988,179.37795 268.23069,184.47171 253.03125,185.03125 C 247.42030,185.23781 242.14329,184.74795 237.53125,183.78125 C 237.32656,183.75644 237.11107,183.71396 236.90625,183.68750 C 223.79184,181.99359 210.48844,176.92570 202.81250,167.71875 C 189.58323,139.53101 221.68896,152.54584 225.46875,133.03125 C 229.18889,113.82465 207.50426,112.50653 206.81250,112.46875 L 108.62500,112.46875 z "
       id="path1262"
       sodipodi:nodetypes="cccccccccccccccccccccccccccccccccccccccccc" />
  </g>

  <rdf:RDF 
   xmlns="http://web.resource.org/cc/"
   xmlns:dc="http://purl.org/dc/elements/1.1/"
   xmlns:rdf="http://www.w3.org/1999/02/22-rdf-syntax-ns#">
  <Work rdf:about="">
    <dc:title>Clipart by Nicu Buculei - jigsaw_red_10</dc:title>
    <dc:rights>
       <Agent>
         <dc:title>Nicu Buculei</dc:title>
       </Agent>
    </dc:rights>
    <dc:type rdf:resource="http://purl.org/dc/dcmitype/StillImage" />
    <license rdf:resource="http://web.resource.org/cc/PublicDomain" />
  </Work>
   
  <License rdf:about="http://web.resource.org/cc/PublicDomain">
     <permits rdf:resource="http://web.resource.org/cc/Reproduction" />
     <permits rdf:resource="http://web.resource.org/cc/Distribution" />
     <permits rdf:resource="http://web.resource.org/cc/DerivativeWorks" />
  </License>

</rdf:RDF>
</svg>
