<?xml version="1.0" encoding="utf-8"?>
<!-- Generator: Adobe Illustrator 11.0, SVG Export Plug-In  -->
<!DOCTYPE svg PUBLIC "-//W3C//DTD SVG 1.0//EN"    "http://www.w3.org/TR/2001/REC-SVG-20010904/DTD/svg10.dtd" [
	<!ENTITY ns_flows "http://ns.adobe.com/Flows/1.0/">
	<!ENTITY ns_svg "http://www.w3.org/2000/svg">
	<!ENTITY ns_xlink "http://www.w3.org/1999/xlink">
]>
<svg  xmlns="&ns_svg;" xmlns:xlink="&ns_xlink;" xmlns:a="http://ns.adobe.com/AdobeSVGViewerExtensions/3.0/"
	 width="512" height="454" viewBox="-0.736 -0.5 512 454" xml:space="preserve">
	<defs>
	</defs>
	<g>
		<path fill="#ED171F" d="M41.184,453.06C18.504,453.06,0,434.556,0,411.804c0-7.272,1.872-14.328,5.544-20.592L219.528,20.628
			c15.912-27.504,55.44-27.504,71.352,0l213.984,370.584c3.6,6.264,5.472,13.392,5.472,20.592c0,22.752-18.36,41.184-41.112,41.256
			H41.184z"/>
		<polygon fill="#FEB82F" points="52.2,405.468 458.136,405.468 255.168,53.892 "/>
		<path d="M419.4,378.396v6.048H90.648l0.72-2.88c1.08-4.176,2.304-8.208,3.672-12.096c1.008-3.168,2.52-6.408,4.32-9.36
			c1.224-2.016,2.376-3.816,3.528-5.688c0.144-0.216,0.432-0.432,0.792-0.648l0.72-1.224l2.664-5.832
			c0.648-1.512,1.512-2.952,2.376-4.248c0.864-1.224,1.728-2.376,2.664-3.456c1.8-2.16,3.456-4.464,4.896-6.84
			c1.44-2.52,3.168-4.752,5.184-6.84c0.792-0.864,1.728-1.656,2.736-2.232c1.224-0.792,2.16-1.8,2.808-3.024
			c1.44-2.808,3.312-5.472,5.4-7.848c2.808-3.24,7.2-4.608,11.376-3.528c2.16,0.576,4.248,1.368,6.192,2.304
			c3.6,1.8,6.912,4.032,9.864,6.696l2.016-1.008c9.072-4.392,17.568-9.216,25.776-14.472l3.672,1.44l4.464-3.744l2.448-2.664
			l4.68-3.384c5.688-4.176,11.808-7.704,18.216-10.584l3.744-3.312l5.904-5.544c0.648-0.648,1.08-1.44,1.296-2.232
			c0.72-2.304,1.152-4.68,1.296-6.984c0.216-3.384,0.36-6.48,0.504-9.648c0.072-2.448,0.288-4.896,0.576-7.344
			c0.432-3.24,0.576-6.336,0.576-9.576c0-0.648,0-1.224,0-1.944c0-0.504-0.072-1.584-0.072-2.736
			c-0.072-1.944-0.288-2.736-0.72-3.384l-3.96-8.496l-5.4-9.216c-1.152-2.016-1.872-4.32-2.016-6.696s0.072-4.752,0.576-7.056
			c0.216-0.936,0.504-1.8,0.864-2.664c0.144-0.288,0.216-0.648,0.216-1.008c0-0.504-0.216-1.008-0.504-1.44
			c-0.288-0.432-0.792-0.648-1.296-0.648c-0.144,0-0.288,0-0.432,0.072c-1.584,0.36-3.24,0-4.464-1.08
			c-2.808-2.376-4.752-5.544-5.688-9.072c-0.36-1.296-0.792-2.664-1.224-4.032c-0.288-1.008-0.864-1.8-1.656-2.448
			c-1.512-1.296-2.592-3.024-3.096-4.896c-0.504-2.088-0.504-4.176,0-6.264c0.576-2.304,1.8-4.464,3.672-6.048
			c1.872-1.584,4.032-2.808,6.336-3.6c2.52-0.792,5.112-1.44,7.704-1.8c1.368-0.216,2.808,0,4.032,0.648
			c1.584,0.864,3.096,1.8,4.392,2.952c1.368,1.08,2.376,2.592,2.952,4.32c0.576,1.656,1.08,3.312,1.44,4.968
			c0.288,1.08,0.504,2.088,0.648,3.096c0.432,2.376,1.296,4.608,2.52,6.696c0.936,1.728,1.728,3.024,2.592,4.32
			c-0.144-0.216,1.008,0.648,2.376,1.08c0.72,0.216,1.584,0.36,2.376,0.36c0.648,0,1.224-0.072,1.8-0.216
			c2.376-0.504,4.68-0.792,7.056-1.008c1.944-0.144,3.888-0.504,5.688-1.08c3.672-1.224,7.272-2.232,10.944-3.312
			c2.016-0.576,4.32-0.72,6.552-0.36c11.52,1.8,22.464,5.688,32.4,11.52c1.008,0.576,2.016,1.152,2.952,1.8
			c1.44,0.936,2.592,2.232,3.24,3.816c0.792,1.8,1.224,3.672,1.44,5.544c0.504,5.4,1.08,10.224,1.8,15.048
			c0.432,3.168,2.016,6.48,4.536,9.144c0.648,0.72,1.44,1.368,2.304,1.872c1.728,1.008,3.168,2.448,4.248,4.176
			c0.504,0.72,0.72,1.584,0.72,2.448c0,1.368-0.576,2.736-1.656,3.6c-1.008,0.792-2.088,1.584-3.168,2.232
			c-0.864,0.576-1.8,0.864-2.808,1.008c-0.504,0.072-0.864,0.432-0.936,0.936l0.936,20.808l0.144,17.136l-0.288,8.208l0.144,7.128
			l-0.432,6.48l-0.792,7.776c-0.288,2.376-0.432,4.824-0.432,7.2c0,3.6,0.288,7.128,0.792,10.656c0.36,2.232,0.576,4.68,0.576,6.984
			c0,0.72-0.072,1.368-0.072,2.016l0.144,9.36l-0.216,10.728l-0.288,9.936l0.144,4.752c0.072,1.728,1.512,3.096,3.24,3.096
			l0.72-0.072l4.248-3.456c0.648-0.504,1.008-1.296,1.008-2.088c0-0.216,0-0.36-0.072-0.576c-0.144-0.864-0.288-1.872-0.288-2.808
			c-0.072-0.864,0.216-1.656,0.792-2.304c0.432-0.432,0.936-0.864,1.584-1.224l2.664-1.152l2.88-1.584
			c2.52-1.368,4.896-2.952,7.056-4.824c0.576-0.504,1.08-0.936,1.584-1.296c0.792-0.792,2.088-1.224,3.384-1.152
			c1.656,0,3.312,0.504,4.752,1.44c1.152,0.792,2.088,1.872,2.664,3.168c3.744,8.64,9.432,16.128,16.632,22.032
			c1.368,1.08,3.024,1.8,4.68,2.088L419.4,378.396z"/>
		<path fill="#FEB82F" d="M247.248,264.636c0.072,0.072,0.144,0.072,0.288,0.072c0.288,0,0.576-0.072,0.792-0.36
			c1.44-1.656,2.736-3.24,3.96-4.896c0.936-1.152,1.728-2.376,2.592-3.6c0.648-1.008,1.296-2.088,2.016-3.096
			c0.72-1.008,1.368-2.088,1.944-3.168c0.936-1.728,1.8-3.312,2.664-4.968c0.576-1.152,1.08-2.592,1.296-4.104
			c0.216-0.792,0.36-1.656,0.576-2.52c0.144-0.36,0.216-0.864,0.216-1.368l0,0c0-0.72-0.288-1.44-0.792-2.016l-1.8-2.016
			l-2.16-1.656c-0.432-0.432-0.936-0.648-1.512-0.648c-0.72,0-1.44,0.432-1.8,1.08l-1.44,2.376c-0.288,0.72-0.504,1.44-0.576,2.232
			c0,1.368-0.144,2.736-0.432,4.104c-0.144,0.648-0.576,2.52-0.936,4.392c-1.008,4.824-2.088,8.568-3.24,12.096l-0.864,2.448
			l-1.008,2.952c-0.216,0.504-0.36,1.08-0.36,1.656c0,0.144,0,0.288,0.072,0.432C246.744,264.348,246.96,264.636,247.248,264.636z"
			/>
		<line fill="none" stroke="#000000" stroke-width="0.216" x1="246.744" y1="263.988" x2="247.176" y2="264.636"/>
		<path fill="#FEB82F" d="M291.96,199.836l3.528,0.072l3.096,0.36l4.824,0.936c0.216,0.072,0.504,0.216,0.576,0.504l1.296,2.808
			l0.936,2.088l0.648,1.8l1.008,2.376l1.656,3.312l1.008,1.8l1.152,2.808l1.08,3.24l0.576,2.448l0.216,0.936
			c0.072,0.144,0.072,0.36,0.072,0.504c0,1.008-0.864,1.872-1.872,1.872c0,0,0,0-0.072,0c-0.36,0-0.792-0.144-1.152-0.36
			l-2.304-2.304l-2.448-2.592l-1.44-1.584l-1.152-1.728l-0.864-1.656c-0.648-1.368-1.296-2.736-1.8-4.176l-3.24-3.672l-4.032-4.464
			l-3.24-3.168c-0.216-0.216-0.216-0.504,0.072-0.648l0.936-1.152C291.24,199.98,291.6,199.836,291.96,199.836z"/>
		<path fill="#FEB82F" d="M254.304,371.484l8.856-6.048l0.432-0.288l1.656-0.504l3.312-0.792l6.408-3.816l-0.36-1.296
			c-0.504-2.232-1.584-4.392-2.952-6.264c-1.152-1.656-2.232-3.384-3.096-5.256c-0.72-1.44-1.08-2.88-1.152-4.464
			c-0.288-4.968-1.152-9.936-2.448-14.832c-1.512-5.328-3.312-10.8-5.256-16.272c-1.008-2.664-1.512-5.184-1.728-7.632
			c-0.072-0.576-0.144-1.152-0.072-1.728c0-0.36,0.144-0.72,0.36-1.008l1.944-1.8l2.304-1.8l2.16-1.944l2.664-2.376l1.656-1.728
			l7.272-7.92l0.936-1.224l0.432-0.648c0.432-0.648,0.936-1.296,1.44-1.944c0.288-0.36,0.576-0.576,0.936-0.792l2.952-1.8
			l2.16-0.792c0.72-0.288,1.584-0.216,2.16,0.288c0.936,0.72,1.584,1.872,1.872,3.024l0.36,3.888l0.432,3.816l1.08,7.632
			c0.216,1.872,0.36,3.672,0.36,5.472c0,1.728-0.144,3.384-0.36,5.04c-0.072,0.648-0.072,1.296-0.072,1.944
			c0,1.872,0.288,3.744,0.936,5.472c0.504,1.296,1.08,2.52,1.728,3.672c1.656,3.096,2.88,6.336,3.744,9.72
			c0.576,2.376,0.936,4.752,1.008,7.2c0.144,3.96,0.648,7.92,1.512,11.808c0.504,2.304,0.864,4.176,1.296,6.192
			c0.072,0.504,0.72,1.008,1.44,1.008c0.144,0,0.288,0,0.432-0.072l1.728,0.072c0.36,0,0.72,0.288,0.792,0.648
			c0.504,1.728,0.72,3.456,0.72,5.184c0,1.656-0.216,3.312-0.648,4.896c-0.36,1.584-1.512,2.808-3.024,3.312
			c-1.296,0.432-2.664,0.792-4.032,0.936c-1.296,0.216-2.376,1.152-2.592,2.376c-0.144,0.576-0.216,1.08-0.216,1.584v0.072l0,0
			c0,1.224-0.792,2.16-1.872,2.448c-1.08,0.36-2.232,0.576-3.312,0.648c-1.656,0.144-3.312,0.36-5.04,0.648l-5.256,0.144
			l-6.12-0.288l-4.896-0.792l-3.096-0.72l-4.752-0.936l-3.24-0.648L254.304,371.484z"/>
		<path fill="#FEB82F" d="M163.224,321.372l1.872-0.36l4.968-1.08c3.384-0.72,6.624-1.728,9.792-3.096
			c2.736-1.152,4.824-2.016,6.912-2.88c2.52-1.008,5.04-2.664,7.272-4.752l3.528-2.952l3.024-3.024l1.944-1.656l2.232-1.656
			l2.088-1.512l2.592-1.584l1.872-1.008l2.016-1.008l2.088-1.008l2.232-1.152l1.656-0.864l1.512-0.936l1.44-0.792l3.096-1.296
			l6.12,16.704l0.144,0.648l0.144,0.648l2.376,7.92l2.016,8.136l1.512,5.184l1.008,3.888l2.16,9.792l0.576,3.096
			c0.36,1.584,1.08,3.024,2.232,4.248c0.432,0.432,0.936,0.792,1.44,1.008c1.224,0.648,2.52,0.936,3.888,0.936
			c0.216,0,0.504,0,0.72-0.072c0.936-0.072,1.872,0.288,2.448,1.008c1.296,1.512,2.088,3.312,2.376,5.256c0,0.072,0,0.216,0,0.288
			c0,0.36-0.072,0.72-0.216,1.008l-2.664,4.248l-0.504,0.792l-5.976,3.384c-0.432,0.216-0.72,0.72-0.72,1.224
			c0,0.072,0,0.144,0,0.216l0.504,1.944l-2.016-0.432c-2.592-0.648-5.256-0.936-8.064-0.936c-1.584,0-3.24,0.072-4.824,0.288
			c-3.096,0.432-6.264,1.008-9.504,1.8c-3.312,0.792-6.696,1.224-10.224,1.296c-2.376,0.072-4.752-0.216-6.984-0.864
			c-0.936-0.216-2.016-0.504-3.024-0.72c-2.088-0.36-3.96-1.368-5.328-2.88c-1.008-1.008-2.232-2.376-3.528-3.6l-3.24-4.608
			l-1.8-2.88l-1.944-2.808l-1.728-2.52L180,347.22l-1.296-2.088l-1.872-3.816l-1.368-3.024l-0.936-1.872l-0.792-1.512
			c-2.736-4.968-6.192-9.576-10.44-13.536H163.224z"/>
	</g>
</svg>
